<svg width="53" height="54" xmlns="http://www.w3.org/2000/svg" xmlns:xlink="http://www.w3.org/1999/xlink" xml:space="preserve" overflow="hidden"><defs><clipPath id="clip0"><rect x="126" y="218" width="53" height="54"/></clipPath></defs><g clip-path="url(#clip0)" transform="translate(-126 -218)"><path d="M18.5025 10.1318 18.0161 9.13808C17.6783 9.30371 17.3459 9.47888 17.0191 9.66367L17.5629 10.6248C17.8706 10.4526 18.1838 10.2882 18.5025 10.1318Z" fill="#3BD5CA" transform="matrix(1 0 0 1.01887 126 218)"/><path d="M42.8483 34.5372 43.842 35.0247C44.0077 34.6879 44.1643 34.3457 44.3119 33.9978L43.2922 33.5667C43.1538 33.8953 43.0058 34.2188 42.8483 34.5372Z" fill="#3BD5CA" transform="matrix(1 0 0 1.01887 126 218)"/><path d="M9.45332 35.5923C9.63109 35.9235 9.81808 36.2494 10.0142 36.57L10.9555 35.9958C10.7711 35.6938 10.5939 35.3885 10.4272 35.0739Z" fill="#3BD5CA" transform="matrix(1 0 0 1.01887 126 218)"/><path d="M8.30941 33.0184C8.43567 33.3729 8.57275 33.7225 8.72071 34.0674L9.73654 33.6335C9.59797 33.3088 9.46768 32.9798 9.35008 32.6463Z" fill="#3BD5CA" transform="matrix(1 0 0 1.01887 126 218)"/><path d="M14.1333 13.133 13.3825 12.3231C13.1072 12.5781 12.8389 12.8413 12.5776 13.1125L13.3737 13.8783C13.6199 13.6228 13.8731 13.3744 14.1333 13.133Z" fill="#3BD5CA" transform="matrix(1 0 0 1.01887 126 218)"/><path d="M8.3613 24.7885 7.261 24.6875C7.22732 25.0596 7.20248 25.4345 7.18923 25.8127L8.2934 25.8513C8.30593 25.4961 8.32856 25.1419 8.3613 24.7885Z" fill="#3BD5CA" transform="matrix(1 0 0 1.01887 126 218)"/><path d="M14.9228 41.9616C15.2231 42.1876 15.5305 42.4048 15.8448 42.6131L16.4554 41.6928C16.161 41.497 15.8711 41.2924 15.5859 41.0789Z" fill="#3BD5CA" transform="matrix(1 0 0 1.01887 126 218)"/><path d="M7.55305 30.3022C7.62664 30.6732 7.71111 31.0399 7.80646 31.4025L8.87474 31.1226C8.7853 30.781 8.70564 30.4358 8.63569 30.0869Z" fill="#3BD5CA" transform="matrix(1 0 0 1.01887 126 218)"/><path d="M12.7962 40.1105C13.0605 40.3777 13.3332 40.6368 13.6144 40.8878L14.3509 40.0658C14.087 39.8288 13.8293 39.5845 13.5779 39.3332Z" fill="#3BD5CA" transform="matrix(1 0 0 1.01887 126 218)"/><path d="M16.2097 11.4723 15.5837 10.563C15.2741 10.7761 14.9708 10.9969 14.6738 11.2255L15.3512 12.0978C15.631 11.8825 15.9171 11.674 16.2097 11.4723Z" fill="#3BD5CA" transform="matrix(1 0 0 1.01887 126 218)"/><path d="M17.2946 43.4865C17.6258 43.6661 17.9615 43.8361 18.3016 43.9966L18.7708 42.9974C18.4488 42.8461 18.1317 42.6856 17.8196 42.5159Z" fill="#3BD5CA" transform="matrix(1 0 0 1.01887 126 218)"/><path d="M7.20303 27.5059C7.2218 27.8835 7.25272 28.2589 7.29357 28.631L8.39111 28.5101C8.35247 28.1597 8.32415 27.8066 8.30609 27.4507Z" fill="#3BD5CA" transform="matrix(1 0 0 1.01887 126 218)"/><path d="M39.8345 38.9014 40.6433 39.6534C40.9009 39.3777 41.149 39.0952 41.3875 38.8059L40.5378 38.1009C40.3111 38.3748 40.0767 38.6416 39.8345 38.9014Z" fill="#3BD5CA" transform="matrix(1 0 0 1.01887 126 218)"/><path d="M44.4736 29.489 45.5623 29.6706C45.6242 29.3025 45.675 28.9297 45.7147 28.5521L44.6166 28.4356C44.5791 28.7897 44.5314 29.1408 44.4736 29.489Z" fill="#3BD5CA" transform="matrix(1 0 0 1.01887 126 218)"/><path d="M8.80076 22.1717 7.72917 21.9094C7.64083 22.2733 7.56354 22.6409 7.49343 23.0136L8.57937 23.2129C8.64342 22.8622 8.71723 22.5151 8.80076 22.1717Z" fill="#3BD5CA" transform="matrix(1 0 0 1.01887 126 218)"/><path d="M10.8021 17.2598 9.85248 16.6983C9.66035 17.0218 9.478 17.3514 9.30536 17.6871L10.2881 18.1922C10.4504 17.8761 10.6217 17.5652 10.8021 17.2598Z" fill="#3BD5CA" transform="matrix(1 0 0 1.01887 126 218)"/><path d="M9.62116 19.642 8.59759 19.2257C8.45626 19.5736 8.32448 19.9262 8.2023 20.2835L9.2474 20.6407C9.36262 20.3029 9.48717 19.97 9.62116 19.642Z" fill="#3BD5CA" transform="matrix(1 0 0 1.01887 126 218)"/><path d="M11.8494 37.317 10.9611 37.9723C11.1841 38.2752 11.4164 38.5711 11.6578 38.86L12.5052 38.1523C12.2782 37.8806 12.0595 37.6022 11.8494 37.317Z" fill="#3BD5CA" transform="matrix(1 0 0 1.01887 126 218)"/><path d="M43.8476 32.0722 44.8965 32.4101C45.0114 32.0527 45.1161 31.6914 45.2107 31.3263L44.1418 31.0503C44.0546 31.3948 43.9565 31.7354 43.8476 32.0722Z" fill="#3BD5CA" transform="matrix(1 0 0 1.01887 126 218)"/><path d="M37.8878 40.7112 38.5801 41.5719C38.8746 41.3367 39.1605 41.0931 39.4381 40.8409L38.701 40.0211C38.4353 40.2589 38.1642 40.4889 37.8878 40.7112Z" fill="#3BD5CA" transform="matrix(1 0 0 1.01887 126 218)"/><path d="M20.9665 9.14029 20.6297 8.08802C20.2708 8.20285 19.9162 8.32801 19.5658 8.46344L19.9628 9.49362C20.2936 9.36626 20.6282 9.2485 20.9665 9.14029Z" fill="#3BD5CA" transform="matrix(1 0 0 1.01887 126 218)"/><path d="M39.1427 11.8991C38.8589 11.6528 38.5678 11.4147 38.2693 11.1847L37.5969 12.0592C37.8773 12.2763 38.1519 12.501 38.4206 12.7332Z" fill="#3BD5CA" transform="matrix(1 0 0 1.01887 126 218)"/><path d="M41.1341 13.8943C40.8882 13.6094 40.6344 13.3319 40.3727 13.0617L39.58 13.8302C39.8273 14.0849 40.0665 14.3468 40.2977 14.6159Z" fill="#3BD5CA" transform="matrix(1 0 0 1.01887 126 218)"/><path d="M36.8863 10.2135C36.5694 10.0104 36.2463 9.81659 35.9169 9.6322L35.3775 10.5956C35.6878 10.7689 35.9918 10.9513 36.2895 11.1427Z" fill="#3BD5CA" transform="matrix(1 0 0 1.01887 126 218)"/><path d="M33.3199 43.3937 33.7345 44.4173C34.0834 44.2753 34.4274 44.124 34.7663 43.9635L34.2915 42.9659C33.9724 43.1186 33.6485 43.2612 33.3199 43.3937Z" fill="#3BD5CA" transform="matrix(1 0 0 1.01887 126 218)"/><path d="M42.8152 16.1567C42.612 15.8383 42.4009 15.527 42.1819 15.2226L41.287 15.8685C41.4942 16.1556 41.6926 16.4488 41.8821 16.748Z" fill="#3BD5CA" transform="matrix(1 0 0 1.01887 126 218)"/><path d="M44.7188 26.5C44.7188 26.6148 44.7176 26.7293 44.7154 26.8434L45.8196 26.8638C45.8196 26.7424 45.8229 26.6215 45.8229 26.5 45.8229 26.2423 45.8179 25.9875 45.808 25.7354L44.7038 25.779C44.7138 26.0182 44.7188 26.2586 44.7188 26.5Z" fill="#3BD5CA" transform="matrix(1 0 0 1.01887 126 218)"/><path d="M34.4047 8.86922C34.062 8.71463 33.7142 8.56999 33.3613 8.43528L32.9677 9.46712C33.2989 9.5941 33.6267 9.7303 33.9509 9.87567Z" fill="#3BD5CA" transform="matrix(1 0 0 1.01887 126 218)"/><path d="M44.573 24.189 45.6689 24.0493C45.6207 23.6743 45.5623 23.3027 45.4939 22.9346L44.4085 23.1384C44.4736 23.4851 44.5284 23.8353 44.573 24.189Z" fill="#3BD5CA" transform="matrix(1 0 0 1.01887 126 218)"/><path d="M44.0447 21.5865 45.108 21.2878C45.0057 20.9238 44.8936 20.5647 44.7717 20.2107L43.7278 20.5706C43.8426 20.9037 43.9482 21.2423 44.0447 21.5865Z" fill="#3BD5CA" transform="matrix(1 0 0 1.01887 126 218)"/><path d="M43.1414 19.0872 44.1496 18.6367C43.9957 18.2929 43.8325 17.9547 43.6599 17.6219L42.6799 18.1304C42.8429 18.444 42.9968 18.7629 43.1414 19.0872Z" fill="#3BD5CA" transform="matrix(1 0 0 1.01887 126 218)"/><path d="M35.7016 42.22 36.2603 43.1729C36.5853 42.9826 36.9036 42.7828 37.2154 42.5734L36.6031 41.6552C36.3087 41.8525 36.0081 42.0408 35.7016 42.22Z" fill="#3BD5CA" transform="matrix(1 0 0 1.01887 126 218)"/><path d="M22.5802 45.4227C22.9461 45.4988 23.3165 45.5642 23.6915 45.6186L23.8511 44.5266C23.4989 44.4747 23.1492 44.4131 22.8021 44.3417Z" fill="#3BD5CA" transform="matrix(1 0 0 1.01887 126 218)"/><path d="M26.1975 8.28401 26.1792 7.17984C25.8012 7.18575 25.4256 7.20287 25.0524 7.23119L25.1341 8.33204C25.486 8.30554 25.8404 8.28953 26.1975 8.28401Z" fill="#3BD5CA" transform="matrix(1 0 0 1.01887 126 218)"/><path d="M41.5007 36.8295 42.4105 37.4555C42.6243 37.1449 42.8288 36.8293 43.0239 36.5087L42.0803 35.9351C41.8952 36.2395 41.702 36.5376 41.5007 36.8295Z" fill="#3BD5CA" transform="matrix(1 0 0 1.01887 126 218)"/><path d="M19.8651 44.6492C20.218 44.7784 20.5756 44.8976 20.9378 45.0069L21.2558 43.9497C20.9153 43.847 20.5784 43.7346 20.2449 43.6124Z" fill="#3BD5CA" transform="matrix(1 0 0 1.01887 126 218)"/><path d="M23.5497 8.51975 23.3719 7.42994C22.9987 7.49138 22.6293 7.56315 22.2639 7.64525L22.5068 8.72236C22.8502 8.64507 23.1978 8.57755 23.5497 8.51975Z" fill="#3BD5CA" transform="matrix(1 0 0 1.01887 126 218)"/><path d="M31.7536 7.90307C31.3926 7.8011 31.028 7.70913 30.6599 7.62703L30.4198 8.70635C30.7672 8.78326 31.1112 8.86977 31.4516 8.96583Z" fill="#3BD5CA" transform="matrix(1 0 0 1.01887 126 218)"/><path d="M31.0514 45.2819C31.4194 45.1924 31.7822 45.0931 32.1395 44.9837L31.8171 43.9276C31.4792 44.031 31.1369 44.1247 30.7902 44.2086Z" fill="#3BD5CA" transform="matrix(1 0 0 1.01887 126 218)"/><path d="M28.2705 45.7423C28.6463 45.7081 29.0195 45.663 29.3902 45.6071L29.2245 44.5156C28.8756 44.5679 28.5238 44.6104 28.1689 44.6431Z" fill="#3BD5CA" transform="matrix(1 0 0 1.01887 126 218)"/><path d="M28.9932 7.33719C28.6222 7.28932 28.2479 7.25255 27.8703 7.22677L27.793 8.33094C28.1485 8.35562 28.5011 8.39073 28.8508 8.43639Z" fill="#3BD5CA" transform="matrix(1 0 0 1.01887 126 218)"/><path d="M25.3732 45.7903C25.746 45.812 26.1217 45.8229 26.5 45.8229L26.5784 45.8229 26.5784 44.7188 26.5 44.7188C26.1434 44.7188 25.7889 44.7084 25.4367 44.6878Z" fill="#3BD5CA" transform="matrix(1 0 0 1.01887 126 218)"/><path d="M12.3186 15.0752 11.459 14.3823C11.2227 14.6767 10.9951 14.9762 10.7761 15.2806L11.6744 15.9232C11.8808 15.6339 12.0956 15.3512 12.3186 15.0752Z" fill="#3BD5CA" transform="matrix(1 0 0 1.01887 126 218)"/></g></svg>